%TF.GenerationSoftware,KiCad,Pcbnew,9.0.5*%
%TF.CreationDate,2026-01-15T11:09:19+01:00*%
%TF.ProjectId,lab_test_length,6c61625f-7465-4737-945f-6c656e677468,rev?*%
%TF.SameCoordinates,Original*%
%TF.FileFunction,Legend,Top*%
%TF.FilePolarity,Positive*%
%FSLAX46Y46*%
G04 Gerber Fmt 4.6, Leading zero omitted, Abs format (unit mm)*
G04 Created by KiCad (PCBNEW 9.0.5) date 2026-01-15 11:09:19*
%MOMM*%
%LPD*%
G01*
G04 APERTURE LIST*
%ADD10C,0.150000*%
%ADD11C,0.120000*%
%ADD12C,0.100000*%
G04 APERTURE END LIST*
D10*
X145666666Y-116954819D02*
X145666666Y-117669104D01*
X145666666Y-117669104D02*
X145619047Y-117811961D01*
X145619047Y-117811961D02*
X145523809Y-117907200D01*
X145523809Y-117907200D02*
X145380952Y-117954819D01*
X145380952Y-117954819D02*
X145285714Y-117954819D01*
X146047619Y-116954819D02*
X146666666Y-116954819D01*
X146666666Y-116954819D02*
X146333333Y-117335771D01*
X146333333Y-117335771D02*
X146476190Y-117335771D01*
X146476190Y-117335771D02*
X146571428Y-117383390D01*
X146571428Y-117383390D02*
X146619047Y-117431009D01*
X146619047Y-117431009D02*
X146666666Y-117526247D01*
X146666666Y-117526247D02*
X146666666Y-117764342D01*
X146666666Y-117764342D02*
X146619047Y-117859580D01*
X146619047Y-117859580D02*
X146571428Y-117907200D01*
X146571428Y-117907200D02*
X146476190Y-117954819D01*
X146476190Y-117954819D02*
X146190476Y-117954819D01*
X146190476Y-117954819D02*
X146095238Y-117907200D01*
X146095238Y-117907200D02*
X146047619Y-117859580D01*
X53666666Y-118954819D02*
X53666666Y-119669104D01*
X53666666Y-119669104D02*
X53619047Y-119811961D01*
X53619047Y-119811961D02*
X53523809Y-119907200D01*
X53523809Y-119907200D02*
X53380952Y-119954819D01*
X53380952Y-119954819D02*
X53285714Y-119954819D01*
X54666666Y-119954819D02*
X54095238Y-119954819D01*
X54380952Y-119954819D02*
X54380952Y-118954819D01*
X54380952Y-118954819D02*
X54285714Y-119097676D01*
X54285714Y-119097676D02*
X54190476Y-119192914D01*
X54190476Y-119192914D02*
X54095238Y-119240533D01*
X143784166Y-43854819D02*
X143784166Y-44569104D01*
X143784166Y-44569104D02*
X143736547Y-44711961D01*
X143736547Y-44711961D02*
X143641309Y-44807200D01*
X143641309Y-44807200D02*
X143498452Y-44854819D01*
X143498452Y-44854819D02*
X143403214Y-44854819D01*
X144736547Y-43854819D02*
X144260357Y-43854819D01*
X144260357Y-43854819D02*
X144212738Y-44331009D01*
X144212738Y-44331009D02*
X144260357Y-44283390D01*
X144260357Y-44283390D02*
X144355595Y-44235771D01*
X144355595Y-44235771D02*
X144593690Y-44235771D01*
X144593690Y-44235771D02*
X144688928Y-44283390D01*
X144688928Y-44283390D02*
X144736547Y-44331009D01*
X144736547Y-44331009D02*
X144784166Y-44426247D01*
X144784166Y-44426247D02*
X144784166Y-44664342D01*
X144784166Y-44664342D02*
X144736547Y-44759580D01*
X144736547Y-44759580D02*
X144688928Y-44807200D01*
X144688928Y-44807200D02*
X144593690Y-44854819D01*
X144593690Y-44854819D02*
X144355595Y-44854819D01*
X144355595Y-44854819D02*
X144260357Y-44807200D01*
X144260357Y-44807200D02*
X144212738Y-44759580D01*
X53666666Y-127954819D02*
X53666666Y-128669104D01*
X53666666Y-128669104D02*
X53619047Y-128811961D01*
X53619047Y-128811961D02*
X53523809Y-128907200D01*
X53523809Y-128907200D02*
X53380952Y-128954819D01*
X53380952Y-128954819D02*
X53285714Y-128954819D01*
X54095238Y-128050057D02*
X54142857Y-128002438D01*
X54142857Y-128002438D02*
X54238095Y-127954819D01*
X54238095Y-127954819D02*
X54476190Y-127954819D01*
X54476190Y-127954819D02*
X54571428Y-128002438D01*
X54571428Y-128002438D02*
X54619047Y-128050057D01*
X54619047Y-128050057D02*
X54666666Y-128145295D01*
X54666666Y-128145295D02*
X54666666Y-128240533D01*
X54666666Y-128240533D02*
X54619047Y-128383390D01*
X54619047Y-128383390D02*
X54047619Y-128954819D01*
X54047619Y-128954819D02*
X54666666Y-128954819D01*
X97954819Y-136333333D02*
X98669104Y-136333333D01*
X98669104Y-136333333D02*
X98811961Y-136380952D01*
X98811961Y-136380952D02*
X98907200Y-136476190D01*
X98907200Y-136476190D02*
X98954819Y-136619047D01*
X98954819Y-136619047D02*
X98954819Y-136714285D01*
X98288152Y-135428571D02*
X98954819Y-135428571D01*
X97907200Y-135666666D02*
X98621485Y-135904761D01*
X98621485Y-135904761D02*
X98621485Y-135285714D01*
X143784166Y-60854819D02*
X143784166Y-61569104D01*
X143784166Y-61569104D02*
X143736547Y-61711961D01*
X143736547Y-61711961D02*
X143641309Y-61807200D01*
X143641309Y-61807200D02*
X143498452Y-61854819D01*
X143498452Y-61854819D02*
X143403214Y-61854819D01*
X144165119Y-60854819D02*
X144831785Y-60854819D01*
X144831785Y-60854819D02*
X144403214Y-61854819D01*
X145713333Y-95295180D02*
X145713333Y-94580895D01*
X145713333Y-94580895D02*
X145760952Y-94438038D01*
X145760952Y-94438038D02*
X145856190Y-94342800D01*
X145856190Y-94342800D02*
X145999047Y-94295180D01*
X145999047Y-94295180D02*
X146094285Y-94295180D01*
X145094285Y-94866609D02*
X145189523Y-94914228D01*
X145189523Y-94914228D02*
X145237142Y-94961847D01*
X145237142Y-94961847D02*
X145284761Y-95057085D01*
X145284761Y-95057085D02*
X145284761Y-95104704D01*
X145284761Y-95104704D02*
X145237142Y-95199942D01*
X145237142Y-95199942D02*
X145189523Y-95247561D01*
X145189523Y-95247561D02*
X145094285Y-95295180D01*
X145094285Y-95295180D02*
X144903809Y-95295180D01*
X144903809Y-95295180D02*
X144808571Y-95247561D01*
X144808571Y-95247561D02*
X144760952Y-95199942D01*
X144760952Y-95199942D02*
X144713333Y-95104704D01*
X144713333Y-95104704D02*
X144713333Y-95057085D01*
X144713333Y-95057085D02*
X144760952Y-94961847D01*
X144760952Y-94961847D02*
X144808571Y-94914228D01*
X144808571Y-94914228D02*
X144903809Y-94866609D01*
X144903809Y-94866609D02*
X145094285Y-94866609D01*
X145094285Y-94866609D02*
X145189523Y-94818990D01*
X145189523Y-94818990D02*
X145237142Y-94771371D01*
X145237142Y-94771371D02*
X145284761Y-94676133D01*
X145284761Y-94676133D02*
X145284761Y-94485657D01*
X145284761Y-94485657D02*
X145237142Y-94390419D01*
X145237142Y-94390419D02*
X145189523Y-94342800D01*
X145189523Y-94342800D02*
X145094285Y-94295180D01*
X145094285Y-94295180D02*
X144903809Y-94295180D01*
X144903809Y-94295180D02*
X144808571Y-94342800D01*
X144808571Y-94342800D02*
X144760952Y-94390419D01*
X144760952Y-94390419D02*
X144713333Y-94485657D01*
X144713333Y-94485657D02*
X144713333Y-94676133D01*
X144713333Y-94676133D02*
X144760952Y-94771371D01*
X144760952Y-94771371D02*
X144808571Y-94818990D01*
X144808571Y-94818990D02*
X144903809Y-94866609D01*
X58215833Y-54145180D02*
X58215833Y-53430895D01*
X58215833Y-53430895D02*
X58263452Y-53288038D01*
X58263452Y-53288038D02*
X58358690Y-53192800D01*
X58358690Y-53192800D02*
X58501547Y-53145180D01*
X58501547Y-53145180D02*
X58596785Y-53145180D01*
X57311071Y-54145180D02*
X57501547Y-54145180D01*
X57501547Y-54145180D02*
X57596785Y-54097561D01*
X57596785Y-54097561D02*
X57644404Y-54049942D01*
X57644404Y-54049942D02*
X57739642Y-53907085D01*
X57739642Y-53907085D02*
X57787261Y-53716609D01*
X57787261Y-53716609D02*
X57787261Y-53335657D01*
X57787261Y-53335657D02*
X57739642Y-53240419D01*
X57739642Y-53240419D02*
X57692023Y-53192800D01*
X57692023Y-53192800D02*
X57596785Y-53145180D01*
X57596785Y-53145180D02*
X57406309Y-53145180D01*
X57406309Y-53145180D02*
X57311071Y-53192800D01*
X57311071Y-53192800D02*
X57263452Y-53240419D01*
X57263452Y-53240419D02*
X57215833Y-53335657D01*
X57215833Y-53335657D02*
X57215833Y-53573752D01*
X57215833Y-53573752D02*
X57263452Y-53668990D01*
X57263452Y-53668990D02*
X57311071Y-53716609D01*
X57311071Y-53716609D02*
X57406309Y-53764228D01*
X57406309Y-53764228D02*
X57596785Y-53764228D01*
X57596785Y-53764228D02*
X57692023Y-53716609D01*
X57692023Y-53716609D02*
X57739642Y-53668990D01*
X57739642Y-53668990D02*
X57787261Y-53573752D01*
D11*
%TO.C,J3*%
X141790000Y-114550000D02*
X141790000Y-113450000D01*
X141990000Y-111440000D02*
X141990000Y-116560000D01*
X149690000Y-111440000D02*
X141990000Y-111440000D01*
X149690000Y-116560000D02*
X141990000Y-116560000D01*
%TO.C,J1*%
X50310000Y-120440000D02*
X58010000Y-120440000D01*
X50310000Y-125560000D02*
X58010000Y-125560000D01*
X58010000Y-125560000D02*
X58010000Y-120440000D01*
X58210000Y-122450000D02*
X58210000Y-123550000D01*
D12*
%TO.C,J5*%
X141157500Y-45400000D02*
X141157500Y-52600000D01*
X141157500Y-52600000D02*
X158857500Y-52600000D01*
X158857500Y-45400000D02*
X141157500Y-45400000D01*
X158857500Y-52600000D02*
X158857500Y-45400000D01*
D11*
%TO.C,J2*%
X50310000Y-129440000D02*
X58010000Y-129440000D01*
X50310000Y-134560000D02*
X58010000Y-134560000D01*
X58010000Y-134560000D02*
X58010000Y-129440000D01*
X58210000Y-131450000D02*
X58210000Y-132550000D01*
%TO.C,J4*%
X99440000Y-139690000D02*
X99440000Y-131990000D01*
X101450000Y-131790000D02*
X102550000Y-131790000D01*
X104560000Y-131990000D02*
X99440000Y-131990000D01*
X104560000Y-139690000D02*
X104560000Y-131990000D01*
D12*
%TO.C,J7*%
X141157500Y-62400000D02*
X141157500Y-69600000D01*
X141157500Y-69600000D02*
X158857500Y-69600000D01*
X158857500Y-62400000D02*
X141157500Y-62400000D01*
X158857500Y-69600000D02*
X158857500Y-62400000D01*
%TO.C,J8*%
X130640000Y-86550000D02*
X130640000Y-93750000D01*
X130640000Y-93750000D02*
X148340000Y-93750000D01*
X148340000Y-86550000D02*
X130640000Y-86550000D01*
X148340000Y-93750000D02*
X148340000Y-86550000D01*
%TO.C,J6*%
X43142500Y-45400000D02*
X43142500Y-52600000D01*
X43142500Y-52600000D02*
X60842500Y-52600000D01*
X60842500Y-45400000D02*
X43142500Y-45400000D01*
X60842500Y-52600000D02*
X60842500Y-45400000D01*
%TD*%
M02*
