M48
; DRILL file {KiCad 9.0.5} date 2026-01-15T11:11:04+0100
; FORMAT={-:-/ absolute / metric / decimal}
; #@! TF.CreationDate,2026-01-15T11:11:04+01:00
; #@! TF.GenerationSoftware,Kicad,Pcbnew,9.0.5
; #@! TF.FileFunction,Plated,1,2,PTH
FMAT,2
METRIC
; #@! TA.AperFunction,Plated,PTH,ViaDrill
T1C0.300
; #@! TA.AperFunction,Plated,PTH,ComponentDrill
T2C0.650
; #@! TA.AperFunction,Plated,PTH,ComponentDrill
T3C0.850
%
G90
G05
T1
X137.0Y-128.0
T2
X56.682Y-49.0
X57.883Y-49.0
X144.118Y-49.0
X144.118Y-66.0
X144.18Y-90.15
X145.317Y-49.0
X145.317Y-66.0
X145.38Y-90.15
T3
X54.742Y-46.46
X54.742Y-51.54
X59.822Y-46.46
X59.822Y-51.54
X142.177Y-46.46
X142.177Y-51.54
X142.177Y-63.46
X142.177Y-68.54
X142.24Y-87.61
X142.24Y-92.69
X147.257Y-46.46
X147.257Y-51.54
X147.257Y-63.46
X147.257Y-68.54
X147.32Y-87.61
X147.32Y-92.69
M30
